<svg xmlns="http://www.w3.org/2000/svg"
    xmlns:xlink="http://www.w3.org/1999/xlink" xml:space="preserve" version="1.1" x="0px" y="0px" viewBox="0 0 100 125">
    <path d="M80,20L20,20C14.477,20,10,24.477,10,30L10,70C10,75.523,14.477,80,20,80L80,80C85.523,80,90,75.523,90,70L90,30C90,24.477,85.523,20,80,20ZM80,65C80,67.761,77.761,70,75,70L25,70C22.239,70,20,67.761,20,65L20,42.071C20,40.745,20.527,39.473,21.464,38.535L28.535,31.464C29.473,30.527,30.745,30,32.071,30L67.929,30C69.255,30,70.527,30.527,71.465,31.464L78.536,38.535C79.473,39.473,80,40.745,80,42.071L80,65Z" />
    <path d="M47.5,35L52.5,35L52.5,50L47.5,50L47.5,35Z" />
    <path d="M30,50L35,50L35,65L30,65L30,50Z" />
    <path d="M65,50L70,50L70,65L65,65L65,50Z" />
</svg>
